<?xml version="1.0" encoding="UTF-8" standalone="no"?>
<!-- Created with Inkscape (http://www.inkscape.org/) -->

<svg
   xmlns:dc="http://purl.org/dc/elements/1.1/"
   xmlns:cc="http://creativecommons.org/ns#"
   xmlns:rdf="http://www.w3.org/1999/02/22-rdf-syntax-ns#"
   xmlns:svg="http://www.w3.org/2000/svg"
   xmlns="http://www.w3.org/2000/svg"
   xmlns:sodipodi="http://sodipodi.sourceforge.net/DTD/sodipodi-0.dtd"
   xmlns:inkscape="http://www.inkscape.org/namespaces/inkscape"
   width="500"
   height="500"
   id="svg3797"
   version="1.1"
   inkscape:version="0.48.1 r9760"
   sodipodi:docname="logo.svg">
  <metadata
     id="metadata2994">
    <rdf:RDF>
      <cc:Work
         rdf:about="">
        <dc:format>image/svg+xml</dc:format>
        <dc:type
           rdf:resource="http://purl.org/dc/dcmitype/StillImage" />
      </cc:Work>
    </rdf:RDF>
  </metadata>
  <defs
     id="defs3799" />
  <sodipodi:namedview
     id="base"
     pagecolor="#ffffff"
     bordercolor="#666666"
     borderopacity="1.0"
     inkscape:pageopacity="0.0"
     inkscape:pageshadow="2"
     inkscape:zoom="0.49497475"
     inkscape:cx="161.31912"
     inkscape:cy="30.753088"
     inkscape:document-units="px"
     inkscape:current-layer="layer"
     showgrid="false"
     fit-margin-top="0"
     fit-margin-left="0"
     fit-margin-right="0"
     fit-margin-bottom="0"
     inkscape:window-width="1680"
     inkscape:window-height="997"
     inkscape:window-x="0"
     inkscape:window-y="0"
     inkscape:window-maximized="1" />
  <g
     inkscape:groupmode="layer"
     id="layer">
    <path
       sodipodi:type="arc"
       style="fill:#008eda;stroke:none"
       sodipodi:cy="2227.4102"
       sodipodi:rx="100.41954"
       sodipodi:ry="52.301842"
       d="m 1871.7086,2227.4102 a 100.41954,52.301842 0 1 1 -200.8391,0 100.41954,52.301842 0 1 1 200.8391,0 z"
       transform="matrix(2.0989893,0,0,3.7683041,-3438.6963,-8159.7478)"
       sodipodi:cx="1771.2891" />
    <path
       inkscape:connector-curvature="0"
       d="M 356.11867,87.27057 220.2947,203.41783 88.29677,121.47708 10.18205,232.75071 l 1.27534,0.31883 c -0.53856,0.93549 -1.07045,1.84661 -1.27534,2.86952 -3.34857,16.71757 39.80841,40.11987 103.30273,58.66575 l -57.70924,49.41952 0.9565,0 c -2.98659,2.60138 -4.71618,5.50457 -5.10137,8.60856 -3.08149,24.83191 82.53589,55.6902 191.30136,69.18732 108.76547,13.49712 217.00617,0.78255 220.08766,-24.04931 0.38515,-3.10399 -0.60931,-6.3126 -2.86952,-9.56507 z"
       style="fill:#ffffff;stroke:none" />
    <path
       d="M 345.73454,126.33734 222.664,231.55309 90.666061,149.61234 l -78.11472,111.27363 1.275342,0.31883 c -0.538562,0.93549 -1.070453,1.84661 -1.275342,2.86952 -3.3485661,16.71757 39.808414,40.11987 103.302729,58.66575 l -57.709239,49.41952 0.956506,0 c -2.986596,2.60138 -4.716185,5.50457 -5.101369,8.60856 -3.081493,24.83191 82.535882,55.6902 191.301352,69.18732 108.76548,13.49712 199.69795,4.42644 202.77944,-20.40548 0.38516,-3.10399 -0.60931,-6.31259 -2.86952,-9.56506 l -99.4767,-293.64759 z"
       style="fill:#000000;stroke:none"
       inkscape:connector-curvature="0" />
    <path
       style="fill:#ffffff;stroke:none"
       d="m 92.8972,176.37177 32.2024,123.38938 c 8.4193,-14.7953 13.16847,-24.82531 17.21712,-32.2024 l 37.30376,50.37602 34.75308,-34.1154 -43.0428,-36.6661 c 7.64603,-1.48388 17.57687,-3.19223 31.88356,-5.4202 L 92.8972,176.37177 z m 190.34485,166.43217 -30.92705,73.3322 33.1589,44.63697 c 53.96963,4.29914 100.98538,2.95502 132.31677,-3.18835 L 283.24205,342.80394 z"
       inkscape:connector-curvature="0" />
    <path
       inkscape:connector-curvature="0"
       style="fill:#ffffff;stroke:none"
       d="M 338.40132,165.23538 222.664,257.06003 262.83729,260.88606 113.3034,428.91241 c 24.78398,8.14556 54.92899,15.45694 88.63629,21.36198 L 292.489,272.68297 322.77838,308.7114 338.40132,165.23538 z" />
  </g>
</svg>
