<svg version="1" xmlns="http://www.w3.org/2000/svg" width="933.333" height="933.333" viewBox="0 0 700.000000 700.000000"><path d="M380.5 43.7C323.8 45.5 268.4 62.9 222 93.4c-31.3 20.6-59.1 47.6-78.7 76.3-3.1 4.6-5.5 8.5-5.2 8.7.2.2 38.6 24.1 85.2 53.1 73.9 45.9 85.1 52.5 86.5 51.3.9-.7 43.7-37.2 95.1-81.1 66.1-56.5 93.6-79.5 94.2-78.5.4.7 28.4 81.5 62.3 179.6 33.9 98 62.1 179.4 62.7 180.8l1 2.7 4.6-5.9c18.7-23.9 35.6-56.5 44.8-86.8 12.4-41.1 14.2-88.7 4.9-130.6C657.1 162.8 576.5 81.8 471.5 54c-27.7-7.3-61.9-11.2-91-10.3z"/><path d="M397.7 250.6c-69.7 59.6-86.1 73.3-87.5 72.5-.9-.5-42.4-26.2-92.1-57-49.7-30.9-90.6-56.1-91-56.1-.7 0-105.7 152.5-108 156.8-9.4 17.9 26.9 44.2 96.4 69.6 9.4 3.4 23.4 8.2 31.3 10.6 7.8 2.4 14.2 4.7 14.2 5.1 0 .4-18.3 16.8-40.7 36.3-22.5 19.5-41.6 36.8-42.6 38.4-2.1 3.7-2.2 11-.2 15.8 2.2 5.2 12.9 15.3 22.6 21.3 14.8 9.1 38.9 19.9 58.5 26.1l7.1 2.3 3.9-4.3c27.4-30.2 198-222.6 197.5-222.7-.3-.1-12.7-1.4-27.6-2.8-14.8-1.4-27-2.7-27.1-2.8-.1-.1 36-28.9 80.3-64 44.2-35.1 80.6-63.7 80.7-63.5.3.3-20.9 195.1-21.5 198-.3 1.1-7.5-6.8-21.3-23.3l-21-25-2 3.8c-1.1 2.1-28.6 56-61.2 119.8l-59.2 116 10.2 1.7c23.1 4 93.2 12.6 94.2 11.6.1-.2-8.5-12-19.1-26.3-10.6-14.3-19.2-26.2-19-26.5.1-.3 9.8-23.2 21.5-51s21.3-50.6 21.4-50.7c.1-.2 36.4 30.6 80.7 68.4 44.2 37.7 84.1 71.7 88.6 75.5l8.1 6.9 6.9-1.6c16.7-3.9 30.8-9.6 38.2-15.4 8.7-6.9 10.2-14.2 5.2-25.2-1.6-3.5-33.6-97.3-71.1-208.4-37.6-111.1-68.6-202.3-68.9-202.6-.3-.4-39.2 32.3-86.4 72.7zM207 292.5c38.8 23 72 42.7 73.9 43.8l3.5 2.1-19 3.3c-10.4 1.7-20.4 3.5-22.1 3.8-3.2.6-2.8 1 26.7 26.2 16.5 14 29.8 25.9 29.5 26.3-.2.4-11.2 11.1-24.3 23.8l-23.9 23.1-24.9-33.6c-13.7-18.5-25.4-34.3-26-35.1-.8-1.2-3.6 3.2-13 20.7-9 16.7-12.1 21.7-12.7 20.4-.4-1-10.4-38.8-22.1-84-11.8-45.2-21.8-83.2-22.1-84.4l-.7-2.2 3.3 2c1.9 1.2 35.1 20.9 73.9 43.8z"/></svg>