<svg xmlns="http://www.w3.org/2000/svg" viewBox="0 0 361.5 162.6">
  <path fill="#55b3d9"
        d="M265,71.8c77.2,0,141.8,46.9,157.1,109.1l23.6,11.6c-4.3-36.3-22.7-69.9-52.8-95.9C358.7,67,313.2,50.7,265,50.7S171.3,67,137.1,96.6c-30.1,26-48.59,59.6-52.89,95.9l23.69-11.6C123.2,118.7,187.8,71.8,265,71.8Z"
        transform="translate(-84.2 -50.7)"/>
  <path fill="#367fbf" d="M84.2,192.4Z" transform="translate(-84.2 -50.7)"/>
  <path fill="#367fbf" d="M422.1,180.9,264.9,103.7,107.8,180.9,84.21,192.5H131.5l133.3-65.6,133.3,65.6h47.6Z"
        transform="translate(-84.2 -50.7)"/>
  <polygon fill="#2d55a6"
           points="361.4 141.8 340.1 141.8 314 141.8 47.4 141.8 21.4 141.8 0 141.8 0 141.8 0 141.9 0 162.6 20.3 162.6 341.2 162.6 361.5 162.6 361.5 142.1 361.5 141.8 361.4 141.8"/>
</svg>
