<?xml version="1.0" encoding="UTF-8" standalone="no"?>
<svg
   xmlns:dc="http://purl.org/dc/elements/1.1/"
   xmlns:cc="http://creativecommons.org/ns#"
   xmlns:rdf="http://www.w3.org/1999/02/22-rdf-syntax-ns#"
   xmlns:svg="http://www.w3.org/2000/svg"
   xmlns="http://www.w3.org/2000/svg"
   xmlns:sodipodi="http://sodipodi.sourceforge.net/DTD/sodipodi-0.dtd"
   xmlns:inkscape="http://www.inkscape.org/namespaces/inkscape"
   width="40"
   height="24"
   id="svg2"
   version="1.1"
   inkscape:version="0.48.3.1 r9886"
   sodipodi:docname="glider_symbol.svg">
  <metadata
     id="metadata10">
    <rdf:RDF>
      <cc:Work
         rdf:about="">
        <dc:format>image/svg+xml</dc:format>
        <dc:type
           rdf:resource="http://purl.org/dc/dcmitype/StillImage" />
        <dc:title></dc:title>
      </cc:Work>
    </rdf:RDF>
  </metadata>
  <defs
     id="defs8" />
  <sodipodi:namedview
     pagecolor="#ffffff"
     bordercolor="#666666"
     borderopacity="1"
     objecttolerance="10"
     gridtolerance="10"
     guidetolerance="10"
     inkscape:pageopacity="0"
     inkscape:pageshadow="2"
     inkscape:window-width="679"
     inkscape:window-height="729"
     id="namedview6"
     showgrid="false"
     inkscape:zoom="4.1375"
     inkscape:cx="-0.42296073"
     inkscape:cy="11.847936"
     inkscape:window-x="683"
     inkscape:window-y="37"
     inkscape:window-maximized="0"
     inkscape:current-layer="svg2" />
  <path
     style="fill:#000000"
     d="m 20,7.4531219 c -2.22322,0 -4.364673,0.079002 -6.375,0.21875 l 6.3125,8.8750001 c 0.02121,1.4e-5 0.04128,0 0.0625,0 0.02122,0 0.04129,1.4e-5 0.0625,0 L 26.375,7.6718719 C 24.3645,7.53414 22.223226,7.4531219 20,7.4531219 z m -9.53125,0.5 c -0.345839,0.038467 -0.6655817,0.082587 -1,0.125 L 4.5,15.078122 c 3.0970244,0.728478 7.274858,1.235996 12,1.40625 L 10.46875,7.9531219 z m 19.09375,0 L 23.5,16.484372 c 4.72516,-0.170238 8.902982,-0.677774 12,-1.40625 L 30.53125,8.0781219 c -0.323416,-0.040444 -0.63465,-0.088181 -0.96875,-0.125 z m -23.90625,0.75 C 3.0858515,9.2251451 1.1183531,9.8691696 0,10.609372 l 0,2.8125 c 0.43478132,0.286223 1.0420576,0.554433 1.71875,0.8125 l 3.9375,-5.5312501 z m 28.6875,0 3.9375,5.5312501 C 38.957941,13.976297 39.565218,13.708115 40,13.421872 l 0,-2.84375 C 38.882803,9.8426063 36.907951,9.2179358 34.34375,8.7031219 z"
     id="path2991"
     inkscape:connector-curvature="0" />
</svg>
