<?xml version="1.0" encoding="UTF-8" standalone="no"?>
<svg
   xmlns:svg="http://www.w3.org/2000/svg"
   xmlns="http://www.w3.org/2000/svg"
   width="40"
   height="24">
  <path
     style="fill:#000000"
     d="m 40,8.5170503 c -7.559783,-2.50958 -15.546403,-1.7324 -18.429368,-1.46846 0.01218,-1.31985 -0.05868,-1.64995 -0.114055,-2.77533 -0.05537,-1.12538 -0.266411,-2.17641 -0.456218,-2.89415 -0.189809,-0.71773001 -0.625882,-1.32588001 -1.002733,-1.32588001 -0.376855,0 -0.812928,0.60815 -1.002732,1.32588001 -0.189812,0.71774 -0.400858,1.76877 -0.456223,2.89415 -0.05538,1.12537 -0.1215,1.45548 -0.109301,2.77533 C 15.546409,6.7846503 7.5597828,6.0074603 0,8.5170503 l 0.00950457,1.07401 0.00474469,0 c 0,0 5.76224594,-0.006 8.63490674,0.1901 2.46618,0.16856 5.153752,0.6130197 7.366043,0.8458997 0.458441,0.13358 2.155383,0.18915 2.78484,0.46098 0.294123,1.40131 0.464147,2.00897 0.589287,5.18474 0.125135,3.17577 0.118807,3.82505 0.118807,5.16574 -1.058782,0.0964 -4.661347,0.33484 -4.785553,0.96946 C 14.482592,23.63424 14.6988,24 14.6988,24 c 1.228896,-0.0726 3.142077,-0.0523 5.2988,-0.0523 0.0017,0 0.0029,0 0.0047,0 2.156728,-3e-5 4.069904,-0.0203 5.2988,0.0523 0,0 0.216222,-0.36576 -0.02378,-1.59202 -0.12421,-0.63462 -3.726771,-0.87302 -4.785553,-0.96946 0,-1.34069 -0.0063,-1.98997 0.118807,-5.16574 0.12514,-3.17577 0.295161,-3.78343 0.589282,-5.18474 0.629457,-0.27183 2.326404,-0.3274 2.784841,-0.46098 2.21229,-0.23288 4.899864,-0.6773397 7.366047,-0.8458997 2.872661,-0.19635 8.639655,-0.1901 8.639655,-0.1901 z" />
</svg>
