<?xml version="1.0" encoding="UTF-8" standalone="no"?>
<!-- Created with Inkscape (http://www.inkscape.org/) -->

<svg
   xmlns:osb="http://www.openswatchbook.org/uri/2009/osb"
   xmlns:dc="http://purl.org/dc/elements/1.1/"
   xmlns:cc="http://creativecommons.org/ns#"
   xmlns:rdf="http://www.w3.org/1999/02/22-rdf-syntax-ns#"
   xmlns:svg="http://www.w3.org/2000/svg"
   xmlns="http://www.w3.org/2000/svg"
   xmlns:sodipodi="http://sodipodi.sourceforge.net/DTD/sodipodi-0.dtd"
   xmlns:inkscape="http://www.inkscape.org/namespaces/inkscape"
   width="500"
   height="500"
   viewBox="0 0 132.29167 132.29167"
   version="1.1"
   id="svg8"
   inkscape:version="0.92.4 (f8dce91, 2019-08-02)"
   sodipodi:docname="skylinesCondorLogo.svg">
  <defs
     id="defs2">
    <linearGradient
       id="linearGradient4885"
       osb:paint="solid">
      <stop
         style="stop-color:#55ddff;stop-opacity:0.56470591;"
         offset="0"
         id="stop4883" />
    </linearGradient>
  </defs>
  <sodipodi:namedview
     id="base"
     pagecolor="#ffffff"
     bordercolor="#666666"
     borderopacity="1.0"
     inkscape:pageopacity="0.0"
     inkscape:pageshadow="2"
     inkscape:zoom="0.5"
     inkscape:cx="-169.01506"
     inkscape:cy="27.06946"
     inkscape:document-units="mm"
     inkscape:current-layer="layer2"
     showgrid="false"
     inkscape:window-width="1853"
     inkscape:window-height="1025"
     inkscape:window-x="67"
     inkscape:window-y="27"
     inkscape:window-maximized="1"
     inkscape:pagecheckerboard="true"
     units="px" />
  <metadata
     id="metadata5">
    <rdf:RDF>
      <cc:Work
         rdf:about="">
        <dc:format>image/svg+xml</dc:format>
        <dc:type
           rdf:resource="http://purl.org/dc/dcmitype/StillImage" />
        <dc:title />
      </cc:Work>
    </rdf:RDF>
  </metadata>
  <g
     inkscape:groupmode="layer"
     id="layer4"
     inkscape:label="blue"
     transform="translate(0,-367.70834)">
    <circle
       style="fill:#008eda;fill-opacity:1;stroke:#000000;stroke-width:3.4886508;stroke-miterlimit:4;stroke-dasharray:none;stroke-opacity:1"
       id="path3804-3"
       cx="72.395332"
       cy="428.65457"
       r="58.255676" />
  </g>
  <g
     inkscape:groupmode="layer"
     id="layer1"
     inkscape:label="black flat" />
  <g
     inkscape:groupmode="layer"
     id="layer3"
     inkscape:label="White circle"
     transform="translate(0,-367.70834)">
    <path
       inkscape:connector-curvature="0"
       d="M 97.88141,421.25784 60.24053,444.52365 23.659959,428.10981 2.341581,450.50604 c -0.125351,0.14468 -0.272766,0.3271 -0.329547,0.53201 -0.927988,3.34877 5.891085,8.41415 23.487258,12.12912 l -10.980143,9.75703 c -0.434393,0.28583 -0.913713,0.86736 -1.020463,1.48915 -0.853973,4.97415 22.873163,11.15545 53.015323,13.8591 30.142167,2.70363 60.138871,0.15683 60.992841,-4.81739 0.10679,-0.62177 -0.16885,-1.26449 -0.79521,-1.91602 z"
       style="fill:#f9f9f9;stroke:none;stroke-width:0.23561132"
       id="path887-6"
       sodipodi:nodetypes="ccccsccssccc" />
  </g>
  <g
     inkscape:groupmode="layer"
     id="layer2"
     inkscape:label="Condor"
     transform="translate(0,-367.70834)">
    <path
       inkscape:connector-curvature="0"
       id="path3713"
       d="m 109.09041,466.39438 c -1.58134,-1.2413 -2.33011,-1.94659 -3.02736,-2.85155 -0.43691,-0.56708 -0.44523,-0.63986 0.14027,1.22967 0.20665,0.65986 0.40962,1.34947 0.45101,1.53243 0.1009,0.4458 -0.0149,0.77819 -0.27092,0.77819 -0.50486,0 -2.66211,-1.44327 -3.24878,-2.17356 l -0.31369,-0.3905 -0.35395,0.32248 c -0.61392,0.55927 -1.26633,0.41588 -2.654752,-0.58341 -0.584281,-0.42054 -0.656813,-0.44751 -1.082564,-0.40252 -0.634034,0.067 -1.607367,-0.17517 -2.245006,-0.55846 -0.381036,-0.22904 -0.60869,-0.30651 -0.811249,-0.27601 -0.395223,0.0595 -0.979753,-0.0842 -1.355501,-0.33317 -0.392897,-0.26034 -0.883678,-0.95702 -0.988833,-1.40366 -0.04317,-0.18329 -0.122534,-0.33324 -0.176425,-0.33324 -0.05381,0 -0.314829,0.18585 -0.579895,0.41303 -0.797337,0.68336 -1.453635,0.81082 -2.178946,0.42319 l -0.430754,-0.23019 -0.181112,0.18909 c -0.325565,0.33991 -0.824389,0.53673 -1.3618,0.53734 -0.520383,6e-4 -0.817609,-0.11089 -1.37718,-0.51685 l -0.30822,-0.22358 -0.553418,0.2372 c -0.304387,0.13052 -0.691281,0.23721 -0.859771,0.23721 -0.340234,0 -0.892352,-0.39604 -1.207611,-0.86618 -0.179621,-0.26793 -0.210119,-0.27838 -0.543915,-0.18677 -0.472452,0.12967 -1.309324,0.0466 -1.676707,-0.16649 -0.163588,-0.0949 -0.345456,-0.29763 -0.404137,-0.45054 -0.0678,-0.17667 -0.222228,-0.31568 -0.423697,-0.38141 -0.403795,-0.1318 -0.993068,-0.65653 -0.993068,-0.88444 0,-0.21691 -0.01743,-0.21657 -0.58268,0.01 -0.535721,0.21524 -1.400736,0.24612 -1.638952,0.0585 -0.08843,-0.0697 -0.228896,-0.43542 -0.312125,-0.81286 -0.08323,-0.37745 -0.182334,-0.71069 -0.220249,-0.74055 -0.03787,-0.0298 -0.33709,0.17265 -0.664855,0.45002 -0.490522,0.41504 -0.661342,0.50425 -0.965785,0.50425 -0.203418,0 -0.461109,-0.0385 -0.57265,-0.0854 -0.258542,-0.10891 -0.50405,-0.57045 -0.426965,-0.80259 0.07174,-0.21606 -0.06331,-0.22463 -0.70959,-0.045 -0.609736,0.1694 -1.286716,0.17111 -1.4632,0.002 -0.221963,-0.21061 -0.03945,-0.59681 0.738992,-1.5637 0.461605,-0.57334 0.654921,-0.8815 0.528526,-0.84257 -1.273431,0.39231 -3.277036,0.86748 -3.83256,0.90893 l -0.699204,0.0522 -0.03435,-0.52343 -0.03436,-0.52339 -1.096544,-0.008 c -1.407667,-0.0115 -1.489215,-0.0587 -1.41175,-0.81866 l 0.0577,-0.56604 -0.749563,0.0578 -0.749555,0.0578 -0.322303,-0.49135 c -0.426776,-0.65063 -0.814067,-0.9763 -1.064373,-0.89502 -0.53263,0.17295 -0.567779,0.1582 -0.915412,-0.38416 -0.270299,-0.42166 -0.546334,-0.6653 -1.318948,-1.16416 -0.537409,-0.34697 -1.020675,-0.63089 -1.073926,-0.63089 -0.154285,0 -0.188261,0.25741 -0.381192,2.88831 -0.188337,2.56803 -0.424137,4.64095 -0.641246,5.63699 -0.165908,0.7612 -0.481459,1.02598 -1.139832,0.95643 -0.381716,-0.0403 -0.521958,-0.01 -0.790024,0.16694 -0.402653,0.26682 -1.01152,0.2842 -1.513448,0.0432 -0.316004,-0.15172 -0.375122,-0.15636 -0.498825,-0.0391 -0.216642,0.20556 -1.018474,0.53957 -1.443156,0.60113 -0.563681,0.0816 -1.245338,-0.0979 -1.684754,-0.44396 l -0.387694,-0.30532 -0.578346,0.34725 c -1.119917,0.67239 -1.507112,0.75643 -2.981379,0.6472 -1.112815,-0.0824 -1.49853,-0.23921 -1.725122,-0.70116 -0.06509,-0.13265 -0.192029,-0.19995 -0.377442,-0.19995 -0.613203,0 -1.413346,-0.19757 -1.693398,-0.41811 -0.258703,-0.20374 -0.289811,-0.29846 -0.289811,-0.88265 0,-0.59697 -0.100049,-0.79753 -0.282119,-0.56553 -0.03832,0.0489 -0.217308,0.0889 -0.397663,0.0889 -0.366479,0 -0.499791,-0.13923 -0.621092,-0.64837 -0.04693,-0.19699 -0.171985,-0.37298 -0.304841,-0.42895 -0.186567,-0.0786 -0.213418,-0.15331 -0.156304,-0.43459 0.06419,-0.31622 0.03797,-0.35897 -0.380308,-0.61985 l -0.449275,-0.28024 0.0262,-0.67666 0.0263,-0.67664 -0.479611,-0.25613 c -0.321612,-0.17174 -0.479604,-0.32085 -0.479604,-0.45262 0,-0.10804 -0.07763,-0.28385 -0.172558,-0.39054 -0.109998,-0.12364 -0.145677,-0.27829 -0.09843,-0.42654 0.06013,-0.18864 -0.0017,-0.29415 -0.328555,-0.55896 -0.221472,-0.17954 -0.461238,-0.4464 -0.53281,-0.59302 -0.128427,-0.26311 -0.11477,-0.27811 1.037133,-1.14024 2.279081,-1.7057 4.648087,-3.36277 6.307189,-4.4117 l 1.681792,-1.06329 -0.476779,-0.0966 c -0.959273,-0.19436 -1.548436,-0.37003 -1.936395,-0.57736 -0.365825,-0.1955 -0.421408,-0.20204 -0.709975,-0.0835 -0.600595,0.24671 -1.610853,0.0805 -1.610853,-0.26502 0,-0.0905 -0.166665,-0.10733 -0.712505,-0.073 -0.825109,0.0522 -1.375252,-0.11491 -1.546523,-0.46968 -0.123473,-0.25574 -0.158444,-0.2595 -0.787887,-0.0846 -0.92974,0.25834 -1.217026,0.16336 -1.790218,-0.59181 l -0.246846,-0.32523 -0.444259,0.13737 c -0.802368,0.2482 -1.283287,-0.0605 -1.692455,-1.08666 -0.07795,-0.19553 -0.174911,-0.38443 -0.215442,-0.41981 -0.04054,-0.0353 -0.300998,0.0545 -0.57882,0.19957 -0.550412,0.28756 -0.912838,0.33345 -1.115415,0.14125 -0.07154,-0.0679 -0.275621,-0.43782 -0.453506,-0.82205 -0.177877,-0.38425 -0.36677,-0.69689 -0.41976,-0.69474 -0.05299,0.002 -0.320707,0.0555 -0.594934,0.11848 -0.874262,0.20107 -1.24227,-0.0921 -1.419392,-1.13075 -0.07821,-0.45854 -0.09143,-0.47311 -0.379283,-0.41761 -0.164045,0.0315 -0.559839,0.0802 -0.879559,0.10761 -0.536496,0.0463 -0.596299,0.032 -0.775779,-0.18355 -0.106965,-0.1285 -0.220454,-0.41532 -0.252221,-0.63724 -0.04667,-0.32609 -0.09268,-0.39264 -0.239866,-0.34688 -0.100167,0.031 -0.437557,0.078 -0.749775,0.10403 -0.771529,0.0646 -0.883901,-0.0565 -0.955799,-1.03065 -0.04511,-0.61127 -0.08966,-0.75872 -0.222221,-0.73576 -0.701352,0.1215 -1.288187,0.11677 -1.670487,-0.0129 -0.231338,-0.0787 -0.750735,-0.20739 -1.154176,-0.28579 -0.403425,-0.0784 -0.852866,-0.20314 -0.998733,-0.27719 -0.234478,-0.11907 -0.256675,-0.17956 -0.191467,-0.52199 l 0.07376,-0.38733 -0.485633,-0.10274 c -0.566247,-0.11991 -1.127448,-0.33369 -1.245626,-0.47435 -0.125347,-0.1492 -0.102608,-0.65745 0.047,-1.05071 0.165213,-0.43428 0.09079,-0.4813 -0.893219,-0.56428 -1.217,-0.1026 -1.463438,-0.40094 -1.103376,-1.33566 0.09242,-0.23994 0.168598,-0.46243 0.169273,-0.49444 8.45e-4,-0.0319 -0.275858,-0.18129 -0.614507,-0.33181 -0.636275,-0.2828 -0.851315,-0.48634 -0.851315,-0.8058 0,-0.11034 -0.103057,-0.21689 -0.253913,-0.26285 -0.139651,-0.0426 -0.634779,-0.18778 -1.100282,-0.32275 -1.448701,-0.42008 -1.715501,-0.66006 -1.213123,-1.09116 0.13965,-0.11977 0.203132,-0.23404 0.141065,-0.25382 -0.06208,-0.0197 -0.468097,-0.14527 -0.902294,-0.27884 -0.585609,-0.18018 -0.847848,-0.31599 -1.015644,-0.52609 -0.19544,-0.24468 -0.291409,-0.28365 -0.705801,-0.28663 l -0.479613,-0.002 -0.0017,-0.37771 c -0.0017,-0.35979 -0.02385,-0.3852 -0.479613,-0.53602 -0.850015,-0.28125 -2.110038,-0.88967 -2.174683,-1.05007 -0.0346,-0.0859 0.01291,-0.29896 0.105603,-0.47362 l 0.168489,-0.31758 h -0.314846 c -0.173176,0 -0.5641409,-0.0596 -0.8688241,-0.13237 -0.3046832,-0.0729 -0.7951785,-0.1328 -1.0899989,-0.13337 l -0.5360276,-6.9e-4 v -0.33769 c 0,-0.4507 -0.158199,-0.551 -0.8689406,-0.551 -0.6826242,0 -0.7367417,-0.0823 -0.2871496,-0.43631 0.2182058,-0.17182 0.5631988,-0.29301 1.1567001,-0.40632 0.8792902,-0.16785 3.6399637,-0.88655 3.9441597,-1.02679 0.107392,-0.0495 -0.85089,-0.0813 -2.4977789,-0.083 -1.4695965,-6.9e-4 -3.0627264,-0.0455 -3.5402749,-0.0977 -0.986284,-0.10791 -2.3078247,-0.40702 -2.3078247,-0.52217 0,-0.0806 1.2319643,-0.45031 2.7647985,-0.82984 1.1602531,-0.28725 3.0554547,-0.61968 5.191051,-0.91054 2.593091,-0.35318 2.591181,-0.34997 0.28212,-0.4722 -2.3886846,-0.12649 -4.6545806,-0.31379 -6.2066902,-0.51317 -1.0238107,-0.13151 -3.0025749,-0.5883 -3.1940373,-0.73731 -0.1301491,-0.10117 0.9188515,-0.43613 2.1148455,-0.67505 1.0860133,-0.21696 3.1890229,-0.43866 5.1175329,-0.53951 0.6383761,-0.0333 1.1461961,-0.0716 1.1284871,-0.0848 -0.01769,-0.0129 -1.0732295,-0.15046 -2.3456052,-0.30482 -3.9182171,-0.47539 -5.8681403,-0.97832 -5.8681403,-1.5135 0,-0.40565 1.7280447,-0.56286 5.7265473,-0.52097 l 3.0262802,0.0315 -2.5990441,-0.71914 c -5.1980103,-1.43827 -6.593747,-1.97308 -5.2227798,-2.00126 1.2248872,-0.0251 2.3099932,0.0466 5.6060895,0.37037 1.9506254,0.19166 3.5613984,0.33683 3.5794984,0.32257 0.01811,-0.0143 -0.435275,-0.18031 -1.007496,-0.36901 -2.5947696,-0.85572 -5.1769523,-2.00228 -5.831562,-2.58943 -0.3917855,-0.35139 -0.4105399,-0.41401 -0.1709207,-0.57063 0.4308908,-0.28162 3.4008384,0.17175 6.9066587,1.05432 0.75918,0.19111 1.356786,0.3175 1.328011,0.28081 -0.02879,-0.0366 -0.404621,-0.23148 -0.835217,-0.43294 -1.988281,-0.93024 -1.996494,-1.28913 -0.02347,-1.0261 3.706564,0.49413 9.123658,2.50517 14.359774,5.33096 4.17333,2.25222 6.161071,3.25389 7.827423,3.94448 3.496435,1.44902 4.408587,1.97337 7.484258,4.3025 4.041602,3.06058 7.225039,4.96827 11.517223,6.90176 3.052211,1.37496 4.605759,1.8475 6.333103,1.92643 1.75475,0.0802 2.865745,-0.22346 4.379376,-1.19684 1.27304,-0.81867 1.891831,-1.02602 3.181504,-1.06604 0.948797,-0.0293 1.130355,-0.008 1.578973,0.17266 0.564026,0.22914 4.013497,1.71071 4.196989,2.24735 0.180546,0.52802 -3.006343,-0.18859 -3.472599,0.0914 -0.477623,0.28688 -0.57222,0.463 -0.706597,1.3154 -0.190116,1.20592 0.182658,2.12705 1.222957,3.02191 0.94043,0.80898 3.35476,2.1809 5.700367,3.23916 3.316013,1.49609 9.971312,3.67139 14.89607,4.86879 3.01705,0.73356 5.143839,1.46848 7.050123,2.43619 1.251007,0.63507 2.986403,1.34435 4.573343,1.86914 1.73037,0.57227 4.98698,1.93453 7.50444,3.13922 4.06144,1.94353 6.87232,3.7322 8.06488,5.13201 0.28138,0.33031 0.51162,0.64886 0.51162,0.70791 0,0.12893 -0.78772,0.0536 -1.49403,-0.14252 -0.25278,-0.0703 -0.47708,-0.11392 -0.49846,-0.097 -0.0213,0.0168 0.57791,0.46718 1.33175,1.00075 2.36031,1.67067 3.70768,2.89801 3.70768,3.37741 0,0.1245 -0.0914,0.14124 -0.57355,0.10475 -0.75286,-0.0571 -2.44131,-0.72123 -4.27896,-1.68343 -0.77583,-0.40622 -1.48679,-0.77619 -1.57988,-0.82215 -0.0931,-0.0461 0.28932,0.31371 0.84978,0.79927 1.90488,1.65025 3.09471,2.80908 3.92485,3.82264 0.47565,0.58072 0.75983,1.10382 0.59973,1.10382 -0.0367,0 -0.51883,-0.15347 -1.07127,-0.34103 -1.27214,-0.43193 -2.56946,-1.03023 -3.79856,-1.75188 -0.52976,-0.31103 -0.92561,-0.51726 -0.87966,-0.45827 0.046,0.059 0.44736,0.51003 0.89202,1.00235 1.56931,1.73753 2.05049,2.43826 2.23834,3.25957 0.0418,0.18331 0.0419,0.33328 9e-5,0.33328 -0.19944,0 -2.12979,-0.86693 -2.82232,-1.2675 -0.42867,-0.24797 -1.40556,-0.94561 -2.17083,-1.55035 l -1.3915,-1.09957 0.41297,0.559 c 0.76043,1.0293 1.9566,3.04165 2.13601,3.59342 0.18855,0.57988 0.24333,1.80903 0.0808,1.80903 -0.0533,0 -0.52305,-0.29511 -1.04389,-0.65584 -1.43207,-0.99181 -3.61817,-2.99393 -5.0091,-4.58755 -1.01048,-1.15777 -1.01138,-1.15671 -0.22523,0.26662 1.33425,2.41578 2.15389,4.29216 2.35831,5.39889 0.0564,0.30505 0.0362,0.37769 -0.10446,0.37769 -0.0959,0 -0.87482,-0.54989 -1.731,-1.22196 z"
       style="fill:#000000;stroke-width:0.10014466"
       sodipodi:nodetypes="csccscccccccccsccccccccscccccscccccscccccccccccscccccccsccccccccccccscscsscccccccsccccccccccscccccccccccccccccccccccccsccccccccscccccccccccccscccsscccccscccccscccsccsccccccccccscsccccccccscsccscscccscccccscccccscccccsccccscc" />
  </g>
</svg>
