<?xml version="1.0" encoding="UTF-8" standalone="no"?>
<svg
   xmlns:svg="http://www.w3.org/2000/svg"
   xmlns="http://www.w3.org/2000/svg"
   width="263.03125"
   height="157.46875">
  <g
     transform="translate(-171.28124,-418.84375)">
    <path
       style="fill:#000000"
       d="m 434.3125,474.50001 c -49.71148,-16.50246 -102.22975,-11.39188 -121.1875,-9.65626 0.0801,-8.67906 -0.38588,-10.84974 -0.75,-18.24999 -0.3641,-7.40023 -1.75186,-14.31158 -2.99999,-19.03126 -1.24814,-4.71968 -4.11566,-8.71875 -6.59375,-8.71875 -2.47812,0 -5.34564,3.9991 -6.59375,8.71875 -1.24816,4.71968 -2.63595,11.63103 -3.00002,19.03126 -0.36415,7.40022 -0.79896,9.57093 -0.71874,18.24999 -18.95772,-1.73562 -71.47603,-6.84623 -121.18751,9.65626 l 0.0625,7.06248 0.0312,0 c 0,0 37.89127,-0.0411 56.78126,1.25001 16.21706,1.10845 33.88995,4.03113 48.43749,5.56249 3.01461,0.87839 14.17333,1.24381 18.3125,3.03127 1.93409,9.21472 3.05213,13.21057 3.87502,34.09373 0.82286,20.88319 0.78125,25.1527 0.78125,33.96877 -6.96232,0.63417 -30.652,2.20185 -31.46875,6.37498 -1.57811,8.06358 -0.15639,10.46876 -0.15639,10.46876 8.08095,-0.4771 20.66161,-0.34395 34.84375,-0.34375 0.0111,0 0.0193,0 0.0312,0 14.18217,-2e-4 26.7628,-0.1334 34.84375,0.34375 0,0 1.42183,-2.40518 -0.15639,-10.46876 -0.81678,-4.17313 -24.50643,-5.74081 -31.46875,-6.37498 0,-8.81607 -0.0414,-13.08558 0.78125,-33.96877 0.82289,-20.88316 1.94091,-24.87901 3.87499,-34.09373 4.13917,-1.78746 15.29792,-2.15288 18.3125,-3.03127 14.54754,-1.53139 32.22044,-4.45404 48.43752,-5.56249 18.88999,-1.29116 56.81248,-1.25001 56.81248,-1.25001 z" />
  </g>
</svg>
