<?xml version="1.0" encoding="UTF-8" standalone="no"?>
<!-- Created with Inkscape (http://www.inkscape.org/) -->

<svg
   xmlns:dc="http://purl.org/dc/elements/1.1/"
   xmlns:cc="http://creativecommons.org/ns#"
   xmlns:rdf="http://www.w3.org/1999/02/22-rdf-syntax-ns#"
   xmlns:svg="http://www.w3.org/2000/svg"
   xmlns="http://www.w3.org/2000/svg"
   xmlns:sodipodi="http://sodipodi.sourceforge.net/DTD/sodipodi-0.dtd"
   xmlns:inkscape="http://www.inkscape.org/namespaces/inkscape"
   width="263.03125"
   height="157.46875"
   id="svg11519"
   version="1.1"
   inkscape:version="0.48.1 r9760"
   sodipodi:docname="Neues Dokument 50">
  <defs
     id="defs11521" />
  <sodipodi:namedview
     id="base"
     pagecolor="#ffffff"
     bordercolor="#666666"
     borderopacity="1.0"
     inkscape:pageopacity="0.0"
     inkscape:pageshadow="2"
     inkscape:zoom="0.7"
     inkscape:cx="93.702147"
     inkscape:cy="208.61728"
     inkscape:document-units="px"
     inkscape:current-layer="g46"
     showgrid="false"
     showguides="true"
     inkscape:guide-bbox="true"
     inkscape:object-nodes="true"
     inkscape:snap-smooth-nodes="true"
     fit-margin-top="0"
     fit-margin-left="0"
     fit-margin-right="0"
     fit-margin-bottom="0"
     inkscape:window-width="1280"
     inkscape:window-height="726"
     inkscape:window-x="0"
     inkscape:window-y="26"
     inkscape:window-maximized="1">
    <sodipodi:guide
       orientation="0,1"
       position="165.54219,78.733869"
       id="guide12304" />
  </sodipodi:namedview>
  <metadata
     id="metadata11524">
    <rdf:RDF>
      <cc:Work
         rdf:about="">
        <dc:format>image/svg+xml</dc:format>
        <dc:type
           rdf:resource="http://purl.org/dc/dcmitype/StillImage" />
        <dc:title></dc:title>
      </cc:Work>
    </rdf:RDF>
  </metadata>
  <g
     inkscape:label="Ebene 1"
     inkscape:groupmode="layer"
     id="layer1"
     transform="translate(-171.28124,-418.84375)">
    <g
       transform="matrix(2.7631337,0,0,2.7561761,-708.5362,-38.835606)"
       id="g46"
       style="fill:#000000;fill-opacity:1;stroke:none;display:inline;enable-background:new">
      <path
         style="fill:#000000;fill-opacity:1;stroke:none"
         d="m 413.60601,186.24921 c -17.99098,-5.98745 -36.99776,-4.13322 -43.85872,-3.5035 0.029,-3.14895 -0.13965,-3.93652 -0.27143,-6.62149 -0.13177,-2.68496 -0.63401,-5.19255 -1.08572,-6.90495 -0.45171,-1.7124 -1.48949,-3.16335 -2.38633,-3.16335 -0.89685,0 -1.93463,1.45096 -2.38633,3.16335 -0.45172,1.7124 -0.95397,4.21999 -1.08573,6.90495 -0.13179,2.68496 -0.28915,3.47254 -0.26012,6.62149 -6.86095,-0.62972 -25.86774,-2.48396 -43.85872,3.5035 l 0.0226,2.56242 0.0113,0 c 0,0 13.71315,-0.0149 20.54959,0.45353 5.86908,0.40217 12.26504,1.46258 17.52991,2.01819 1.09101,0.3187 5.12944,0.45128 6.62744,1.09981 0.69996,3.3433 1.10459,4.79308 1.4024,12.36994 0.2978,7.57687 0.28274,9.12594 0.28274,12.3246 -2.51972,0.23009 -11.0932,0.79888 -11.38879,2.31298 -0.57113,2.92564 -0.0566,3.79829 -0.0566,3.79829 2.92456,-0.1731 7.4776,-0.12479 12.61023,-0.12472 0.004,0 0.007,0 0.0113,0 5.13264,-7e-5 9.68567,-0.0484 12.61023,0.12472 0,0 0.51457,-0.87265 -0.0566,-3.79829 -0.2956,-1.5141 -8.86907,-2.08289 -11.38879,-2.31298 0,-3.19866 -0.015,-4.74773 0.28274,-12.3246 0.29781,-7.57686 0.70243,-9.02664 1.40239,-12.36994 1.498,-0.64853 5.53644,-0.78111 6.62744,-1.09981 5.26487,-0.55562 11.66083,-1.61602 17.52992,-2.01819 6.83644,-0.46846 20.56089,-0.45353 20.56089,-0.45353 z"
         id="swift"
         inkscape:connector-curvature="0"
         sodipodi:nodetypes="ccsszscccccsccsccccccccsccscc" />
    </g>
  </g>
</svg>
